<svg width="12" height="13" viewBox="0 0 12 13" fill="none" xmlns="http://www.w3.org/2000/svg">
<path d="M9.63167 0.687475L7.12333 4.41164C7.08761 4.46527 7.07251 4.53003 7.08084 4.59393C7.08917 4.65783 7.12035 4.71656 7.16863 4.75925C7.21691 4.80193 7.27901 4.8257 7.34345 4.82614C7.40789 4.82658 7.47031 4.80366 7.51917 4.76164L9.98833 2.61997C10.0028 2.60703 10.0207 2.59858 10.0399 2.59565C10.0591 2.59272 10.0788 2.59544 10.0964 2.60348C10.1141 2.61152 10.129 2.62454 10.1394 2.64093C10.1498 2.65733 10.1553 2.67639 10.155 2.69581V9.40081C10.155 9.42134 10.1487 9.44136 10.1369 9.45817C10.1251 9.47498 10.1084 9.48775 10.0891 9.49476C10.0698 9.50177 10.0489 9.50267 10.029 9.49734C10.0092 9.49201 9.99151 9.48071 9.97833 9.46498L2.515 0.530808C2.39495 0.389054 2.24548 0.275146 2.07696 0.197002C1.90844 0.118859 1.72492 0.0783557 1.53917 0.0783081H1.27833C0.939298 0.0783081 0.614149 0.212989 0.374415 0.452723C0.134681 0.692457 0 1.01761 0 1.35664V10.8C0 11.139 0.134681 11.4642 0.374415 11.7039C0.614149 11.9436 0.939298 12.0783 1.27833 12.0783C1.49693 12.0784 1.71189 12.0224 1.90271 11.9158C2.09353 11.8091 2.25384 11.6554 2.36833 11.4691L4.87667 7.74498C4.91239 7.69134 4.92749 7.62659 4.91916 7.56268C4.91083 7.49878 4.87965 7.44006 4.83137 7.39737C4.78309 7.35468 4.72099 7.33092 4.65655 7.33048C4.59211 7.33004 4.52969 7.35295 4.48083 7.39498L2.01167 9.53664C1.9972 9.54959 1.97927 9.55804 1.96008 9.56097C1.94088 9.5639 1.92125 9.56118 1.90358 9.55313C1.8859 9.54509 1.87095 9.53208 1.86055 9.51569C1.85015 9.49929 1.84475 9.48022 1.845 9.46081V2.75414C1.84501 2.73361 1.85133 2.71359 1.86311 2.69678C1.8749 2.67997 1.89157 2.66719 1.91086 2.66019C1.93016 2.65318 1.95114 2.65228 1.97096 2.65761C1.99078 2.66294 2.00849 2.67424 2.02167 2.68997L9.48417 11.6258C9.60421 11.7676 9.75369 11.8815 9.92221 11.9596C10.0907 12.0378 10.2742 12.0783 10.46 12.0783H10.7208C10.8888 12.0784 11.0551 12.0454 11.2103 11.9812C11.3655 11.917 11.5065 11.8229 11.6253 11.7042C11.7441 11.5855 11.8383 11.4445 11.9026 11.2894C11.9669 11.1342 12 10.9679 12 10.8V1.35664C12 1.01761 11.8653 0.692457 11.6256 0.452723C11.3859 0.212989 11.0607 0.0783081 10.7217 0.0783081C10.5031 0.0782507 10.2881 0.134214 10.0973 0.240856C9.90647 0.347499 9.74616 0.501262 9.63167 0.687475Z" fill="white"/>
</svg>
