<svg width="256" height="256" viewBox="0 0 256 256" fill="none" xmlns="http://www.w3.org/2000/svg">
<path d="M256 0H0V256H256V0Z" fill="url(#paint0_linear_171_12160)"/>
<path d="M61.2998 138.5H59.5998V157.7C59.5998 157.7 66.6998 163.2 83.7998 163.8V162C68.4998 160.1 63.3998 144.2 61.2998 138.5ZM96.5998 125.3L81.1998 115.1C69.5998 107.5 71.4998 95.8 79.6998 93.5V91.8C66.4998 92.7 62.1998 99.3 62.1998 99.3C53.8998 110.2 59.1998 120.2 73.3998 129.1L88.7998 138.8C99.6998 146.8 98.1998 159.6 90.0998 162.1V163.8C103.7 162.8 107.8 155.7 107.8 155.7C115.3 144.8 109.8 134 96.5998 125.3ZM106.9 113.3H108.6V96.5C108.6 96.5 101 92.3 85.9998 91.8V93.6C99.6998 95.3 105.1 108.4 106.9 113.3Z" fill="white"/>
<path d="M149.321 142.7L147.921 141.1C132.121 162.2 124.921 161.3 122.521 161.3V163H152.521V161.3C135.821 161.3 149.321 142.7 149.321 142.7ZM186.321 153.2L152.321 105.8C147.521 99.1 149.321 94.3 153.821 94.3V92.6H118.521V94.3C121.121 94.3 125.121 94.7 131.121 102.5L165.421 150.1C165.421 150.1 172.021 159.5 165.221 161.3V163H198.221V161.3C195.621 161.3 191.821 160.4 186.321 153.2ZM168.021 112.3L169.321 113.9C184.421 94.1 194.021 94.3 196.621 94.3V92.6H163.821V94.3C180.921 94.3 168.021 112.3 168.021 112.3Z" fill="url(#paint1_linear_171_12160)"/>
<defs>
<linearGradient id="paint0_linear_171_12160" x1="0" y1="256" x2="301.176" y2="180.706" gradientUnits="userSpaceOnUse">
<stop stop-color="#030504"/>
<stop offset="1" stop-color="#0C3327"/>
</linearGradient>
<linearGradient id="paint1_linear_171_12160" x1="158.371" y1="92.6" x2="158.371" y2="163" gradientUnits="userSpaceOnUse">
<stop stop-color="#C7F94F"/>
<stop offset="1" stop-color="#5FBDB5"/>
</linearGradient>
</defs>
</svg>
